<?xml version="1.0" encoding="UTF-8" standalone="no"?>
<svg width="11.2889mm" height="11.2889mm"
 viewBox="0 0 32 32"
 xmlns="http://www.w3.org/2000/svg" xmlns:xlink="http://www.w3.org/1999/xlink"  version="1.2" baseProfile="tiny">
<title>Qt SVG Document</title>
<desc>Generated with Qt</desc>
<defs>
</defs>
<g fill="none" stroke="black" stroke-width="1" fill-rule="evenodd" stroke-linecap="square" stroke-linejoin="bevel" >

<g fill="#ffffff" fill-opacity="1" stroke="#232323" stroke-opacity="1" stroke-width="1" stroke-linecap="square" stroke-linejoin="round" transform="matrix(1,0,0,1,0,0)"
font-family="MS Shell Dlg 2" font-size="8.25" font-weight="400" font-style="normal" 
>
<path vector-effect="non-scaling-stroke" fill-rule="evenodd" d="M25.0709,16 C25.0709,20.6966 21.2635,24.5039 16.5669,24.5039 C11.8703,24.5039 8.06299,20.6966 8.06299,16 C8.06299,11.3034 11.8703,7.49606 16.5669,7.49606 C21.2635,7.49606 25.0709,11.3034 25.0709,16 "/>
</g>

<g fill="#ffffff" fill-opacity="1" stroke="#232323" stroke-opacity="1" stroke-width="1" stroke-linecap="square" stroke-linejoin="round" transform="matrix(1,0,0,1,16,16)"
font-family="MS Shell Dlg 2" font-size="8.25" font-weight="400" font-style="normal" 
>
</g>

<g fill="#ffffff" fill-opacity="1" stroke="#232323" stroke-opacity="1" stroke-width="1" stroke-linecap="square" stroke-linejoin="round" transform="matrix(1.33333,0,0,1.33333,16,16)"
font-family="MS Shell Dlg 2" font-size="8.25" font-weight="400" font-style="normal" 
>
</g>

<g fill="#99191c" fill-opacity="1" stroke="none" transform="matrix(0.0244366,0,0,0.0244366,8.91339,8.91339)"
font-family="MS Shell Dlg 2" font-size="8.25" font-weight="400" font-style="normal" 
>
<path vector-effect="none" fill-rule="nonzero" d="M523.745,297.838 C525.039,297.094 525.933,295.811 526.182,294.34 C526.431,292.868 526.011,291.362 525.035,290.234 L302.343,32.685 C300.799,30.898 298.213,30.438 296.146,31.578 L71.516,155.51 C70.189,156.242 69.266,157.537 69.006,159.031 C68.746,160.525 69.177,162.055 70.179,163.193 L298.68,422.678 C299.658,423.787 301.036,424.373 302.435,424.373 C303.287,424.373 304.146,424.156 304.926,423.707 L523.745,297.838"/>
</g>

<g fill="#99191c" fill-opacity="1" stroke="none" transform="matrix(0.0244366,0,0,0.0244366,8.91339,8.91339)"
font-family="MS Shell Dlg 2" font-size="8.25" font-weight="400" font-style="normal" 
>
<path vector-effect="none" fill-rule="nonzero" d="M291.281,444.163 C291.269,442.966 290.828,441.811 290.037,440.912 L65.409,185.3 C64.041,183.743 61.855,183.194 59.913,183.913 C57.971,184.634 56.674,186.478 56.654,188.55 L55.686,284.889 C55.673,286.127 56.121,287.325 56.941,288.252 L283.506,544.348 C284.474,545.442 285.847,546.035 287.252,546.035 C287.275,546.035 287.298,546.035 287.321,546.035 C290.059,546.008 292.272,543.78 292.272,541.035 C292.272,540.866 292.263,540.699 292.247,540.534 L291.281,444.163"/>
</g>

<g fill="#99191c" fill-opacity="1" stroke="none" transform="matrix(0.0244366,0,0,0.0244366,8.91339,8.91339)"
font-family="MS Shell Dlg 2" font-size="8.25" font-weight="400" font-style="normal" 
opacity="0.75" >
<path vector-effect="none" fill-rule="nonzero" d="M523.947,320.195 C521.338,318.525 518.016,318.462 515.344,320.028 L309.094,440.882 C306.686,442.293 305.156,444.828 305.029,447.617 L304.884,450.803 C304.747,453.82 306.272,456.669 308.858,458.23 C310.167,459.02 311.64,459.415 313.115,459.415 C314.554,459.415 315.994,459.039 317.28,458.285 L523.357,337.518 C525.636,336.182 527.137,333.834 527.392,331.205 L527.709,327.933 C528.009,324.851 526.555,321.862 523.947,320.195 "/>
</g>

<g fill="#99191c" fill-opacity="1" stroke="none" transform="matrix(0.0244366,0,0,0.0244366,8.91339,8.91339)"
font-family="MS Shell Dlg 2" font-size="8.25" font-weight="400" font-style="normal" 
opacity="0.75" >
<path vector-effect="none" fill-rule="nonzero" d="M523.947,360.195 C521.338,358.526 518.016,358.463 515.344,360.028 L309.094,480.882 C306.686,482.293 305.156,484.828 305.029,487.617 L304.884,490.803 C304.747,493.82 306.272,496.669 308.858,498.23 C310.167,499.02 311.64,499.415 313.115,499.415 C314.554,499.415 315.994,499.039 317.28,498.285 L523.357,377.518 C525.636,376.182 527.137,373.834 527.392,371.205 L527.709,367.933 C528.009,364.851 526.555,361.862 523.947,360.195 "/>
</g>

<g fill="#99191c" fill-opacity="1" stroke="none" transform="matrix(0.0244366,0,0,0.0244366,8.91339,8.91339)"
font-family="MS Shell Dlg 2" font-size="8.25" font-weight="400" font-style="normal" 
opacity="0.75" >
<path vector-effect="none" fill-rule="nonzero" d="M523.947,400.195 C521.338,398.527 518.016,398.463 515.344,400.028 L309.094,520.882 C306.686,522.293 305.156,524.828 305.029,527.617 L304.884,530.803 C304.747,533.82 306.272,536.669 308.858,538.23 C310.167,539.02 311.64,539.415 313.115,539.415 C314.554,539.415 315.994,539.039 317.28,538.285 L523.357,417.518 C525.636,416.182 527.137,413.834 527.392,411.205 L527.709,407.933 C528.009,404.851 526.555,401.862 523.947,400.195 "/>
</g>

<g fill="#ffffff" fill-opacity="1" stroke="#232323" stroke-opacity="1" stroke-width="1" stroke-linecap="square" stroke-linejoin="round" transform="matrix(1.33333,0,0,1.33333,16,16)"
font-family="MS Shell Dlg 2" font-size="8.25" font-weight="400" font-style="normal" 
>
</g>

<g fill="#ffffff" fill-opacity="1" stroke="#232323" stroke-opacity="1" stroke-width="1" stroke-linecap="square" stroke-linejoin="round" transform="matrix(1,0,0,1,16,16)"
font-family="MS Shell Dlg 2" font-size="8.25" font-weight="400" font-style="normal" 
>
</g>

<g fill="#ffffff" fill-opacity="1" stroke="#232323" stroke-opacity="1" stroke-width="1" stroke-linecap="square" stroke-linejoin="round" transform="matrix(1,0,0,1,0,0)"
font-family="MS Shell Dlg 2" font-size="8.25" font-weight="400" font-style="normal" 
>
</g>
</g>
</svg>
