<?xml version="1.0" encoding="utf-8"?>
<!-- Generator: Adobe Illustrator 19.0.0, SVG Export Plug-In . SVG Version: 6.00 Build 0)  -->
<svg version="1.1" id="Capa_1" xmlns="http://www.w3.org/2000/svg" xmlns:xlink="http://www.w3.org/1999/xlink" x="0px" y="0px"
	 viewBox="-291 383.3 27.8 27.8" style="enable-background:new -291 383.3 27.8 27.8;" xml:space="preserve">
<style type="text/css">
	.st0{fill:#C60000;stroke:#930000;stroke-width:0.75;stroke-miterlimit:10;}
	.st1{fill:#FFFFFF;}
</style>
<path class="st0" d="M-277.1,410c-1.2-1.1-2.3-2.2-3.5-3.2c-2,0-4,0.1-6,0.1c-0.2,0-1.3,0.1-2.2-1c-0.7-0.8-0.8-1.8-0.8-2.1
	c0-5.5,0-11,0-16.4c0-0.3,0.2-1.3,0.9-2.1c0.8-0.9,1.8-0.9,2-0.9c6.4,0,12.9,0.1,19.3,0.1c0.2,0,1.1,0.1,1.8,0.9
	c0.7,0.8,0.9,1.8,0.9,2.1c0,5.4,0,10.9,0,16.3c0,0.2-0.1,1.3-0.8,2.2c-0.8,0.9-1.7,1-1.9,0.9c-2,0-4.1,0-6.1,0.1
	C-274.8,407.9-276,409-277.1,410z"/>
<path d="M-277.1,407.1"/>
<g>
	<path class="st1" d="M-277.2,386.5c-5.2,0-9.4,4.2-9.4,9.4c0,5.2,4.2,9.4,9.4,9.4c5.2,0,9.4-4.2,9.4-9.4
		C-267.8,390.7-272,386.5-277.2,386.5z M-270.9,397.7h-4.4v4.4h-3.8v-4.4h-4.4v-3.8h4.4v-4.4h3.8v4.4h4.4L-270.9,397.7L-270.9,397.7
		L-270.9,397.7z"/>
</g>
</svg>
