<?xml version="1.0" encoding="utf-8"?>
<!-- Generator: Adobe Illustrator 19.0.0, SVG Export Plug-In . SVG Version: 6.00 Build 0)  -->
<svg version="1.1" id="Capa_1" xmlns="http://www.w3.org/2000/svg" xmlns:xlink="http://www.w3.org/1999/xlink" x="0px" y="0px"
	 viewBox="-291 383.2 27.8 27.8" style="enable-background:new -291 383.2 27.8 27.8;" xml:space="preserve">
<style type="text/css">
	.st0{fill:#FF48E9;stroke:#CE005E;stroke-width:0.75;stroke-miterlimit:10;}
	.st1{fill:#FFFFFF;}
</style>
<path class="st0" d="M-277,409.9c-1.2-1.1-2.3-2.2-3.5-3.2c-2,0-4,0.1-6,0.1c-0.2,0-1.3,0.1-2.2-1c-0.7-0.8-0.8-1.8-0.8-2.1
	c0-5.5,0-11,0-16.4c0-0.3,0.2-1.3,0.9-2.1c0.8-0.9,1.8-0.9,2-0.9c6.4,0,12.9,0.1,19.3,0.1c0.2,0,1.1,0.1,1.8,0.9
	c0.7,0.8,0.9,1.8,0.9,2.1c0,5.4,0,10.9,0,16.3c0,0.2-0.1,1.3-0.8,2.2c-0.8,0.9-1.7,1-1.9,0.9c-2,0-4.1,0-6.1,0.1
	C-274.7,407.8-275.9,408.9-277,409.9z"/>
<path d="M-277,407"/>
<path class="st1" d="M-268.8,386c-0.3-0.2-0.8-0.1-0.9,0.2l-1.5,2.3l0,0l-0.5,0.8c-0.4,0.6-0.6,1.2-0.6,1.9v9.7
	c0,0.2-0.1,0.3-0.3,0.3l0,0l0,0c-0.1,0-0.2-0.1-0.2-0.1s-0.1-0.1-0.1-0.2v-5.5c0-1.1-0.8-2-2-2.1v-3.9c0-0.5-0.2-0.9-0.6-1.3
	s-0.8-0.6-1.3-0.6h-7.5c-1,0-1.8,0.8-1.8,1.8v13.4c0,0.7,0.5,1.1,1,1.3v0.6c0,0.4,0.3,0.7,0.7,0.7h7.7l0,0c0.2,0,0.4-0.1,0.5-0.2
	c0.1-0.1,0.2-0.3,0.2-0.5v-0.6c0.6-0.1,1-0.7,1-1.3v-8.1c0.2,0,0.3,0.1,0.4,0.2c0.1,0.1,0.2,0.3,0.2,0.5v5.5c0,0.5,0.2,0.8,0.5,1.2
	c0.3,0.3,0.8,0.5,1.2,0.5l0,0l0,0c0.9,0,1.7-0.8,1.7-1.7V391c0-0.2,0-0.3,0.1-0.5c0.2,0.2,0.5,0.2,0.8,0.2l0,0
	c0.8,0,1.4-0.7,1.4-1.4c0-0.4-0.2-0.8-0.4-1c-0.1-0.1-0.2-0.2-0.3-0.2l0.8-1.1C-268.5,386.7-268.6,386.3-268.8,386z M-277.5,389.9
	v2.9h-6.1v-2.9H-277.5z"/>
</svg>
